<svg width="100" height="100" xmlns="http://www.w3.org/2000/svg">
 <g>
  <title>Layer 1</title>
  <path stroke-width="2" stroke="#000" id="svg_4" d="m0.15385,0.15385l32.00003,32.00003" opacity="undefined" stroke-linecap="undefined" stroke-linejoin="undefined" fill="none"/>
  <line stroke-width="2" x1="67.53843" stroke="#000" stroke-linecap="undefined" stroke-linejoin="undefined" id="svg_5" y2="0.15385" x2="100" y1="32.61542" fill="none"/>
  <ellipse stroke-width="2" ry="25" rx="25" id="svg_6" cy="50" cx="50" stroke="#000" fill="none"/>
  <path stroke-width="2" stroke="#000" id="svg_11" d="m67.70387,67.84612l32.00003,32.00003" opacity="undefined" stroke-linecap="undefined" stroke-linejoin="undefined" fill="none"/>
  <line stroke-width="2" stroke="#000" stroke-linecap="undefined" stroke-linejoin="undefined" id="svg_12" y2="67.53843" x2="32.46157" y1="100" fill="none"/>
  <path transform="rotate(-45 53.1726 7.0541)" fill="none" stroke="#000" stroke-width="2" stroke-linejoin="undefined" stroke-linecap="undefined" opacity="undefined" d="m53.17265,2.05411l0,10" id="svg_1"/>
  <line transform="rotate(45 47.4258 7.0499)" fill="none" x1="47.42578" y1="2.17978" x2="47.42578" y2="12.17978" id="svg_15" stroke-linejoin="undefined" stroke-linecap="undefined" stroke-width="2" stroke="#000"/>
  <path transform="rotate(-45 94.1258 42.1658)" fill="none" stroke="#000" stroke-width="2" stroke-linejoin="undefined" stroke-linecap="undefined" opacity="undefined" d="m94.12586,37.16577l0,10" id="svg_16"/>
  <line transform="rotate(45 94.0934 47.8909)" fill="none" x1="94.09332" y1="42.8909" x2="94.09332" y2="52.8909" id="svg_17" stroke-linejoin="undefined" stroke-linecap="undefined" stroke-width="2" stroke="#000"/>
  <path transform="rotate(-45 6.55009 50.9737)" stroke="#000" fill="none" stroke-width="2" stroke-linejoin="undefined" stroke-linecap="undefined" opacity="undefined" d="m6.55009,45.33091l0,11.28565" id="svg_18"/>
  <line transform="rotate(45 6.78595 44.1961)" fill="none" x1="6.78591" y1="39.19612" x2="6.78591" y2="49.19612" id="svg_19" stroke-linejoin="undefined" stroke-linecap="undefined" stroke-width="2" stroke="#000"/>
  <path transform="rotate(-45 48.7549 93.792)" fill="none" stroke="#000" stroke-width="2" stroke-linejoin="undefined" stroke-linecap="undefined" opacity="undefined" d="m48.75498,88.79199l0,10" id="svg_20"/>
  <line transform="rotate(45 54.4941 93.7878)" fill="none" x1="54.49406" y1="88.78778" x2="54.49406" y2="98.78778" id="svg_21" stroke-linejoin="undefined" stroke-linecap="undefined" stroke-width="2" stroke="#000"/>
 </g>

</svg>